Coordinates
version=1
nRows=43
nColumns=12
inDegrees=yes

Units are S.I. units (second, meters, Newtons, ...)
Angles are in degrees

endheader
time	SC_y	SC_z	SC_x	AC_y	AC_z	AC_x	GH_y	GH_z	GH_yy	EL_x	PS_y
       0.0              -25.26          30.67           76.1          30.93         0.6605          13.11          164.2          3.795          142.3          82.61          157.8
   0.03285              -25.26          30.67          76.09          30.94         0.6605          13.11          164.2          3.798          142.3           82.6          157.8
    0.0657              -25.26          30.67          76.08          30.94         0.6604          13.11          164.2          3.801          142.3          82.59          157.8
   0.09855              -25.26          30.67          76.07          30.95         0.6604          13.11          164.2          3.803          142.3          82.58          157.8
    0.1314              -25.26          30.67          76.06          30.95         0.6603          13.11          164.1          3.806          142.3          82.57          157.7
    0.1642              -25.26          30.67          76.05          30.96         0.6603          13.11          164.1           3.81          142.3          82.56          157.7
    0.1971              -25.26          30.67          76.04          30.96         0.6602          13.11          164.1          3.813          142.3          82.54          157.7
    0.2299              -25.26          30.67          76.03          30.97         0.6601          13.11          164.0          3.817          142.3          82.53          157.7
    0.2628              -25.26          30.67          76.01          30.97         0.6601          13.11          164.0          3.821          142.3          82.52          157.6
    0.2956              -25.26          30.67           76.0          30.98           0.66          13.11          164.0          3.825          142.3           82.5          157.6
    0.3285              -25.27          30.67          75.98          30.99         0.6599          13.11          163.9           3.83          142.3          82.48          157.6
    0.3613              -25.27          30.67          75.96           31.0         0.6598          13.11          163.9          3.835          142.3          82.47          157.5
    0.3942              -25.27          30.67          75.95          31.01         0.6597          13.11          163.9           3.84          142.3          82.45          157.5
     0.427              -25.27          30.67          75.93          31.01         0.6596          13.11          163.8          3.846          142.3          82.43          157.4
    0.4599              -25.27          30.67           75.9          31.02         0.6595          13.11          163.8          3.852          142.3           82.4          157.4
    0.4927              -25.27          30.67          75.88          31.04         0.6594          13.11          163.7          3.859          142.3          82.38          157.4
    0.5256              -25.27          30.67          75.86          31.05         0.6593          13.11          163.6          3.866          142.3          82.35          157.3
    0.5584              -25.28          30.67          75.83          31.06         0.6591          13.11          163.6          3.874          142.3          82.32          157.2
    0.5913              -25.28          30.67           75.8          31.07          0.659          13.11          163.5          3.883          142.3          82.29          157.2
    0.6241              -25.28          30.67          75.76          31.09         0.6588           13.1          163.4          3.892          142.3          82.26          157.1
     0.657              -25.28          30.67          75.73          31.11         0.6586           13.1          163.3          3.903          142.3          82.22          157.0
    0.6898              -25.29          30.67          75.69          31.12         0.6584           13.1          163.2          3.914          142.3          82.18          156.9
    0.7227              -25.29          30.67          75.64          31.15         0.6582           13.1          163.1          3.927          142.3          82.13          156.8
    0.7555              -25.29          30.67          75.59          31.17          0.658           13.1          163.0          3.941          142.3          82.08          156.7
    0.7884               -25.3          30.67          75.54          31.19         0.6577           13.1          162.9          3.957          142.3          82.02          156.6
    0.8212               -25.3          30.67          75.48          31.22         0.6574           13.1          162.7          3.974          142.3          81.96          156.5
    0.8541              -25.31          30.67          75.41          31.25         0.6571          13.09          162.6          3.994          142.3          81.89          156.4
    0.8869              -25.31          30.67          75.33          31.29         0.6567          13.09          162.4          4.016          142.3          81.81          156.2
    0.9198              -25.32          30.67          75.24          31.33         0.6562          13.09          162.2          4.041          142.3          81.72          156.0
    0.9526              -25.32          30.67          75.14          31.37         0.6557          13.09          161.9          4.069          142.3          81.62          155.8
    0.9855              -25.33          30.67          75.03          31.43         0.6552          13.08          161.7          4.101          142.3           81.5          155.6
     1.018              -25.34          30.67           74.9          31.49         0.6545          13.08          161.4          4.138          142.3          81.37          155.3
     1.051              -25.35          30.67          74.75          31.55         0.6538          13.07          161.0          4.181          142.3          81.21          155.0
     1.084              -25.36          30.67          74.58          31.63         0.6529          13.07          160.6          4.231          142.3          81.03          154.6
     1.117              -25.38          30.68          74.37          31.73         0.6519          13.06          160.1          4.289          142.3          80.82          154.2
      1.15               -25.4          30.68          74.13          31.84         0.6507          13.06          159.5          4.358          142.3          80.57          153.7
     1.183              -25.42          30.68          73.85          31.97         0.6493          13.05          158.9          4.439          142.3          80.28          153.1
     1.215              -25.44          30.68          73.51          32.13         0.6476          13.04          158.1          4.537          142.3          79.92          152.4
     1.248              -25.47          30.68          73.09          32.32         0.6455          13.02          157.1          4.655          142.3          79.49          151.5
     1.281              -25.51          30.68          72.59          32.55          0.643          13.01          155.9          4.799          142.3          78.97          150.4
     1.314              -25.55          30.69          71.96          32.83         0.6399          12.99          154.4          4.977          142.3          78.32          149.1
     1.347               -25.6          30.69          71.19          33.19          0.636          12.97          152.5            5.2          142.3          77.52          147.5
      1.38              -25.67           30.7          70.21          33.64         0.6311          12.94          150.2          5.479          142.2          76.51          145.4
